<svg id="visual" viewBox="0 0 900 600" width="900" height="600" xmlns="http://www.w3.org/2000/svg" xmlns:xlink="http://www.w3.org/1999/xlink" version="1.1"><rect x="0" y="0" width="900" height="600" fill="#05386B"></rect><path d="M0 383L129 357L257 389L386 393L514 427L643 387L771 430L900 433L900 601L771 601L643 601L514 601L386 601L257 601L129 601L0 601Z" fill="#3b875d"></path><path d="M0 419L129 409L257 453L386 448L514 435L643 475L771 442L900 445L900 601L771 601L643 601L514 601L386 601L257 601L129 601L0 601Z" fill="#4f9d71"></path><path d="M0 445L129 452L257 444L386 479L514 474L643 490L771 507L900 437L900 601L771 601L643 601L514 601L386 601L257 601L129 601L0 601Z" fill="#64b485"></path><path d="M0 534L129 508L257 498L386 511L514 500L643 533L771 497L900 500L900 601L771 601L643 601L514 601L386 601L257 601L129 601L0 601Z" fill="#79cc9a"></path><path d="M0 540L129 535L257 572L386 526L514 561L643 573L771 543L900 529L900 601L771 601L643 601L514 601L386 601L257 601L129 601L0 601Z" fill="#8ee4af"></path></svg>